# Blender v2.91.2 OBJ File: ''
# www.blender.org
mtllib new2.mtl
o Supplement
v -3.000001 3.000000 -2.250000
v -3.000001 -0.000000 -2.249999
v -3.000000 0.000002 2.250001
v -3.000000 3.000002 2.250000
v 2.999999 3.000000 -2.250001
v 3.000000 3.000003 2.249999
v 3.000001 0.000003 2.250000
v 2.999999 0.000000 -2.250000
v -3.000001 3.000000 -2.250000
v -3.000000 3.000002 2.250000
v 3.000000 3.000003 2.249999
v 2.999999 3.000000 -2.250001
v -3.000000 3.000002 2.250000
v -3.000000 0.000002 2.250001
v 3.000001 0.000003 2.250000
v 3.000000 3.000003 2.249999
v -3.000000 0.000002 2.250001
v -3.000001 -0.000000 -2.249999
v 2.999999 0.000000 -2.250000
v 3.000001 0.000003 2.250000
v -3.000001 -0.000000 -2.249999
v -3.000001 3.000000 -2.250000
v 2.999999 3.000000 -2.250001
v 2.999999 0.000000 -2.250000
v -2.971133 2.971132 -2.221133
v -2.971132 2.971134 2.221133
v -2.971132 0.028869 2.221134
v -2.971133 0.028867 -2.221131
v 2.971131 2.971133 -2.221134
v 2.971132 0.028868 -2.221133
v 2.971133 0.028870 2.221133
v 2.971133 2.971135 2.221131
v -2.971133 2.971132 -2.221133
v 2.971131 2.971133 -2.221134
v 2.971133 2.971135 2.221131
v -2.971132 2.971134 2.221133
v -2.971132 2.971134 2.221133
v 2.971133 2.971135 2.221131
v 2.971133 0.028870 2.221133
v -2.971132 0.028869 2.221134
v -2.971132 0.028869 2.221134
v 2.971133 0.028870 2.221133
v 2.971132 0.028868 -2.221133
v -2.971133 0.028867 -2.221131
v -2.971133 0.028867 -2.221131
v 2.971132 0.028868 -2.221133
v 2.971131 2.971133 -2.221134
v -2.971133 2.971132 -2.221133
vt 0.710938 0.989583
vt 0.710938 0.739584
vt 0.992188 0.739584
vt 0.992188 0.989583
vt 0.210938 0.739584
vt 0.492188 0.739584
vt 0.492188 0.989583
vt 0.210938 0.989583
vt 0.210938 0.218752
vt 0.492188 0.218752
vt 0.492188 0.718751
vt 0.210938 0.718751
vt 0.507812 0.218752
vt 0.695312 0.218752
vt 0.695312 0.718751
vt 0.507812 0.718751
vt 0.710938 0.218752
vt 0.992188 0.218752
vt 0.992188 0.718751
vt 0.710938 0.718751
vt 0.007812 0.218752
vt 0.195312 0.218752
vt 0.195312 0.718751
vt 0.007812 0.718751
vt 0.007812 0.739584
vt 0.195312 0.739584
vt 0.195312 0.739584
vt 0.007812 0.739584
vt 0.007812 0.989583
vt 0.007812 0.989583
vt 0.195312 0.989583
vt 0.195312 0.989583
vt 0.007812 0.739584
vt 0.007812 0.989583
vt 0.195312 0.989583
vt 0.195312 0.739584
vt 0.007812 0.739584
vt 0.007812 0.989583
vt 0.195312 0.989583
vt 0.195312 0.739584
vt 0.007812 0.739584
vt 0.007812 0.989583
vt 0.195312 0.989583
vt 0.195312 0.739584
vt 0.007812 0.739584
vt 0.007812 0.989583
vt 0.195312 0.989583
vt 0.195312 0.739584
vn -1.0000 -0.0000 0.0000
vn 1.0000 0.0000 -0.0000
vn -0.0000 1.0000 -0.0000
vn 0.0000 0.0000 1.0000
vn 0.0000 -1.0000 0.0000
vn -0.0000 -0.0000 -1.0000
usemtl Default_OBJ
s off
f 1/1/1 2/2/1 3/3/1
f 3/3/1 4/4/1 1/1/1
f 5/5/2 6/6/2 7/7/2
f 7/7/2 8/8/2 5/5/2
f 9/9/3 10/10/3 11/11/3
f 11/11/3 12/12/3 9/9/3
f 13/13/4 14/14/4 15/15/4
f 15/15/4 16/16/4 13/13/4
f 17/17/5 18/18/5 19/19/5
f 19/19/5 20/20/5 17/17/5
f 21/21/6 22/22/6 23/23/6
f 23/23/6 24/24/6 21/21/6
f 25/25/2 26/26/2 27/27/2
f 27/27/2 28/28/2 25/25/2
f 29/29/1 30/30/1 31/31/1
f 31/31/1 32/32/1 29/29/1
f 33/33/5 34/34/5 35/35/5
f 35/35/5 36/36/5 33/33/5
f 37/37/6 38/38/6 39/39/6
f 39/39/6 40/40/6 37/37/6
f 41/41/3 42/42/3 43/43/3
f 43/43/3 44/44/3 41/41/3
f 45/45/4 46/46/4 47/47/4
f 47/47/4 48/48/4 45/45/4
