# Blender v3.0.0 OBJ File: ''
# www.blender.org
mtllib Amethyst.mtl
o Cube_Cube.006
v 0.001405 -0.072408 -0.000377
v 0.001405 0.081309 0.063812
v 0.155088 0.081321 -0.000377
v 0.052482 0.030195 -0.000377
v 0.001405 0.234998 -0.000377
v 0.001516 0.081309 -0.064640
v 0.052482 0.132395 -0.000377
v -0.152112 0.081321 -0.000377
v -0.049506 0.030195 -0.000377
v -0.049506 0.132395 -0.000377
vt 0.144743 0.347521
vt 0.045286 0.348856
vt 0.143648 0.519514
vt 0.150150 0.530251
vt 0.248295 0.529857
vt 0.151800 0.360467
vt 0.141871 0.531266
vt 0.043242 0.531063
vt 0.042278 0.359522
vt 0.043181 0.531052
vt 0.250482 0.349569
vt 0.153511 0.348562
vt 0.251575 0.518705
vt 0.151454 0.361516
vt 0.151164 0.530163
vt 0.247134 0.530182
vt 0.251245 0.519157
vt 0.251347 0.348190
vt 0.152736 0.347799
vt 0.046072 0.348232
vt 0.144661 0.348249
vt 0.143440 0.518727
vt 0.042885 0.360221
vt 0.043609 0.530384
vt 0.141023 0.530707
vt 0.047119 0.350034
vt 0.143535 0.519544
vt 0.144791 0.347871
vt 0.143651 0.518752
vt 0.144184 0.348732
vt 0.047280 0.348681
vt 0.043458 0.531063
vt 0.042707 0.359960
vt 0.142027 0.531180
vt 0.251311 0.348941
vt 0.152960 0.347971
vt 0.251003 0.517910
vt 0.143629 0.519002
vt 0.150082 0.530666
vt 0.150534 0.360242
vt 0.248615 0.530816
vt 0.150127 0.530671
vt 0.150326 0.359508
vt 0.248315 0.530593
vn 0.3049 -0.6119 0.7298
vn 0.6121 -0.3047 0.7297
vn 0.3047 0.6122 0.7297
vn 0.6122 0.3047 0.7297
vn -0.6134 -0.3043 0.7288
vn -0.6134 0.3044 0.7288
vn -0.3049 0.6125 0.7293
vn -0.3051 -0.6122 0.7295
vn -0.6132 -0.3043 -0.7289
vn 0.3050 0.6128 -0.7290
vn 0.6129 -0.3051 -0.7288
vn -0.6133 0.3043 -0.7289
vn 0.3052 -0.6125 -0.7292
vn 0.6130 0.3052 -0.7288
vn -0.3051 -0.6124 -0.7293
vn -0.3050 0.6126 -0.7292
usemtl None
s off
f 3/1/1 2/2/1 4/3/1
f 2/4/2 1/5/2 4/6/2
f 2/7/3 3/8/3 7/9/3
f 5/10/4 2/7/4 7/9/4
f 2/11/5 9/12/5 1/13/5
f 2/14/6 5/15/6 10/16/6
f 2/17/7 10/18/7 8/19/7
f 9/20/8 2/21/8 8/22/8
f 9/23/9 6/24/9 1/25/9
f 7/26/10 3/27/10 6/28/10
f 4/29/11 1/30/11 6/31/11
f 10/32/12 5/33/12 6/34/12
f 3/35/13 4/36/13 6/37/13
f 5/38/14 7/26/14 6/28/14
f 9/39/15 8/40/15 6/41/15
f 8/42/16 10/43/16 6/44/16
