# Blender v3.0.0 OBJ File: ''
# www.blender.org
mtllib Garnet.mtl
o Cube.001_Cube.002
v -0.061871 -0.010950 0.020771
v -0.045723 0.054576 0.062805
v 0.092194 0.204136 0.020771
v 0.092194 0.024872 0.020771
v 0.060067 -0.010950 0.020771
v 0.043854 0.054576 0.062805
v 0.043827 0.174475 0.062805
v -0.094215 0.024875 0.020771
v -0.094215 0.204139 0.020771
v 0.059850 0.239961 0.020771
v -0.045856 0.174477 0.062805
v -0.062088 0.239961 0.020771
v 0.059874 -0.010950 -0.010924
v 0.043726 0.054576 -0.052958
v -0.094191 0.204136 -0.010924
v -0.094191 0.024872 -0.010924
v -0.062064 -0.010950 -0.010924
v -0.045851 0.054576 -0.052958
v -0.045824 0.174475 -0.052958
v 0.092218 0.024875 -0.010924
v 0.092218 0.204139 -0.010924
v -0.061847 0.239961 -0.010924
v 0.043859 0.174477 -0.052958
v 0.060091 0.239961 -0.010924
vt 0.051202 0.161194
vt 0.099170 0.158077
vt 0.098323 0.091713
vt 0.051383 0.225642
vt 0.051317 0.161151
vt 0.099837 0.157847
vt 0.097821 0.226417
vt 0.148327 0.158541
vt 0.099330 0.158045
vt 0.098488 0.090943
vt 0.146411 0.090897
vt 0.098341 0.226274
vt 0.052220 0.225396
vt 0.051605 0.160501
vt 0.099571 0.157225
vt 0.099170 0.227100
vt 0.051510 0.226734
vt 0.098785 0.293764
vt 0.100264 0.293568
vt 0.099956 0.090953
vt 0.099624 0.157512
vt 0.148136 0.158427
vt 0.148676 0.226115
vt 0.098937 0.226459
vt 0.195041 0.225811
vt 0.148108 0.227067
vt 0.147317 0.293798
vt 0.148700 0.225437
vt 0.148399 0.160079
vt 0.195216 0.159033
vt 0.195211 0.225130
vt 0.098156 0.225648
vt 0.148132 0.226661
vt 0.147114 0.293655
vt 0.098943 0.294387
vt 0.148103 0.158577
vt 0.195453 0.158840
vt 0.194530 0.225889
vt 0.149026 0.226088
vt 0.148317 0.159180
vt 0.195041 0.158958
vt 0.146702 0.091593
vt 0.146335 0.091284
vt 0.146027 0.293591
vt 0.098404 0.226207
vt 0.149220 0.226115
vt 0.148451 0.158852
vt 0.099328 0.158255
vt 0.146305 0.091267
vt 0.149018 0.158246
vt 0.099739 0.157470
vt 0.098577 0.091654
vt 0.098964 0.226387
vt 0.099352 0.294275
vt 0.147102 0.293501
vt 0.150181 0.226388
vn -0.4479 0.4017 0.7988
vn -0.6555 -0.0003 0.7552
vn 0.6561 0.0001 0.7547
vn 0.0000 -0.5399 0.8417
vn 0.4467 0.4033 0.7986
vn 0.0000 0.5402 0.8415
vn 0.4478 -0.4016 0.7988
vn -0.4461 -0.4028 0.7992
vn 0.0000 0.0000 1.0000
vn 0.4479 0.4017 -0.7988
vn 0.6555 -0.0003 -0.7552
vn -0.6561 0.0001 -0.7547
vn 0.0000 -0.5399 -0.8417
vn -0.4467 0.4033 -0.7986
vn -0.0000 0.5402 -0.8415
vn -0.4478 -0.4016 -0.7988
vn 0.4461 -0.4028 -0.7992
vn 0.0000 -0.0000 -1.0000
vn -0.7434 0.6689 -0.0031
vn -1.0000 0.0000 -0.0008
vn -0.7434 -0.6689 0.0020
vn 1.0000 0.0000 0.0008
vn 0.7434 0.6689 0.0031
vn 0.0000 1.0000 0.0000
vn 0.0000 -1.0000 -0.0000
vn 0.7434 -0.6689 -0.0020
usemtl None
s off
f 11/1/1 12/2/1 9/3/1
f 8/4/2 2/5/2 11/6/2 9/7/2
f 7/8/3 6/9/3 4/10/3 3/11/3
f 5/12/4 6/13/4 2/14/4 1/15/4
f 10/16/5 7/17/5 3/18/5
f 10/16/6 12/2/6 11/1/6 7/17/6
f 4/19/7 6/13/7 5/12/7
f 2/14/8 8/20/8 1/15/8
f 11/21/9 2/22/9 6/23/9 7/24/9
f 23/25/10 24/26/10 21/27/10
f 20/28/11 14/29/11 23/30/11 21/31/11
f 19/32/12 18/33/12 16/34/12 15/35/12
f 17/36/13 18/37/13 14/38/13 13/39/13
f 22/40/14 19/41/14 15/42/14
f 22/40/15 24/26/15 23/25/15 19/41/15
f 16/43/16 18/37/16 17/36/16
f 14/38/17 20/44/17 13/39/17
f 23/45/18 14/46/18 18/47/18 19/48/18
f 12/2/19 22/40/19 15/42/19 9/3/19
f 8/49/20 9/50/20 15/51/20 16/52/20
f 1/15/21 8/20/21 16/43/21 17/36/21
f 3/53/22 4/54/22 20/55/22 21/56/22
f 3/18/23 21/27/23 24/26/23 10/16/23
f 10/16/24 24/26/24 22/40/24 12/2/24
f 5/12/25 1/15/25 17/36/25 13/39/25
f 4/19/26 5/12/26 13/39/26 20/44/26
