# Blender v3.0.0 OBJ File: ''
# www.blender.org
mtllib Topaz.mtl
o Cube_Cube.001
v -0.004213 -0.048938 -0.002978
v -0.004667 -0.044491 -0.000118
v 0.000643 -0.049309 -0.000374
v 0.000673 -0.052275 -0.002982
v -0.001773 -0.049262 -0.000372
v 0.003600 -0.044653 -0.000126
v 0.003192 -0.048993 -0.002982
v -0.001745 -0.052160 -0.002979
v 0.003168 -0.049009 -0.002093
v 0.003729 -0.044567 -0.004960
v -0.001672 -0.049305 -0.004691
v -0.001770 -0.052254 -0.002082
v -0.004237 -0.048914 -0.002080
v 0.000649 -0.052173 -0.002090
v 0.000748 -0.049291 -0.004699
v -0.004535 -0.044615 -0.004932
v -0.128806 0.187001 -0.000215
v -0.127192 0.179414 -0.000118
v -0.129488 0.179994 -0.002978
v -0.130739 0.187228 -0.002961
v -0.129501 0.179996 -0.002080
v -0.127123 0.179405 -0.004932
v -0.128729 0.186998 -0.004848
v -0.130734 0.187226 -0.002112
v -0.129097 0.184400 -0.004827
v -0.125467 0.191099 -0.005026
v -0.128094 0.191017 -0.002130
v -0.131117 0.184631 -0.002091
v -0.129166 0.184376 -0.000227
v -0.131078 0.184635 -0.002972
v -0.128072 0.191025 -0.002961
v -0.125596 0.191055 -0.000065
v 0.134155 0.180074 -0.002982
v 0.131731 0.179462 -0.000126
v 0.133485 0.187034 -0.000237
v 0.135501 0.187269 -0.002967
v 0.133817 0.184392 -0.000247
v 0.130269 0.191101 -0.000083
v 0.132872 0.191038 -0.002969
v 0.135828 0.184629 -0.002977
v 0.132858 0.191039 -0.002134
v 0.130349 0.191091 -0.005035
v 0.133890 0.184386 -0.004846
v 0.135819 0.184632 -0.002101
v 0.134138 0.180071 -0.002093
v 0.135480 0.187264 -0.002119
v 0.133554 0.187039 -0.004863
v 0.131821 0.179480 -0.004960
v -0.001905 0.315607 -0.002464
v -0.002001 0.312999 -0.005353
v 0.003711 0.315718 -0.005283
v 0.003652 0.318022 -0.002474
v 0.001919 0.315727 -0.005281
v 0.007637 0.312946 -0.005363
v 0.007417 0.315606 -0.002468
v 0.001866 0.318063 -0.002472
v 0.007436 0.315598 -0.003303
v 0.007520 0.312993 -0.000410
v 0.001813 0.315726 -0.000493
v 0.001886 0.318023 -0.003305
v -0.001881 0.315616 -0.003296
v 0.003675 0.318063 -0.003308
v 0.003595 0.315735 -0.000496
v -0.002141 0.312946 -0.000393
v 0.001598 0.164568 0.077190
v -0.003735 0.164396 0.075637
v -0.003708 0.171783 0.076546
v 0.001440 0.171371 0.077841
v -0.003586 0.169100 0.076829
v -0.004274 0.176297 0.074379
v 0.001402 0.175232 0.076384
v 0.001545 0.169045 0.078058
v -0.000381 0.175224 0.076387
v 0.005386 0.176343 0.074362
v 0.004484 0.169108 0.076852
v -0.000707 0.169051 0.078085
v -0.000819 0.164558 0.077172
v -0.000541 0.171343 0.077799
v 0.004677 0.171811 0.076548
v 0.004533 0.164430 0.075699
v 0.002492 0.164557 -0.082476
v 0.007798 0.164452 -0.080982
v 0.007971 0.171823 -0.081842
v 0.002794 0.171346 -0.083113
v 0.007792 0.169107 -0.082141
v 0.008584 0.176337 -0.079674
v 0.002892 0.175246 -0.081699
v 0.002642 0.169059 -0.083387
v 0.004684 0.175245 -0.081696
v -0.001055 0.176339 -0.079692
v -0.000262 0.169116 -0.082147
v 0.004897 0.169045 -0.083365
v 0.004913 0.164579 -0.082486
v 0.004782 0.171379 -0.083143
v -0.000393 0.171773 -0.081869
v -0.000466 0.164379 -0.080946
vt 0.359396 0.060006
vt 0.317892 0.139765
vt 0.400279 0.140405
vt 0.314123 0.142957
vt 0.314323 0.143618
vt 0.314900 0.143474
vt 0.314810 0.142906
vt 0.501608 0.145381
vt 0.416525 0.145460
vt 0.459855 0.241606
vt 0.360395 0.057568
vt 0.360885 0.057028
vt 0.403202 0.140249
vt 0.402550 0.140470
vt 0.452925 0.253084
vt 0.452266 0.252847
vt 0.410166 0.333451
vt 0.410653 0.334019
vt 0.352787 0.252913
vt 0.352202 0.252484
vt 0.308163 0.336097
vt 0.308749 0.336524
vt 0.453208 0.249631
vt 0.453634 0.248840
vt 0.453997 0.248797
vt 0.453832 0.249645
vt 0.308262 0.146005
vt 0.307683 0.146506
vt 0.352216 0.247173
vt 0.352784 0.246645
vt 0.402542 0.146123
vt 0.403192 0.146384
vt 0.360441 0.242621
vt 0.359956 0.241988
vt 0.410434 0.149260
vt 0.409952 0.149932
vt 0.452269 0.247224
vt 0.452923 0.246949
vt 0.357946 0.241752
vt 0.357436 0.241947
vt 0.315180 0.145762
vt 0.315687 0.145561
vt 0.408354 0.335265
vt 0.408568 0.335197
vt 0.409555 0.335603
vt 0.408776 0.335849
vt 0.413604 0.141925
vt 0.414114 0.142019
vt 0.414197 0.141496
vt 0.413751 0.141299
vt 0.400242 0.146171
vt 0.317849 0.145531
vt 0.358958 0.239104
vt 0.359032 0.055675
vt 0.360130 0.055708
vt 0.360337 0.055360
vt 0.359185 0.055099
vt 0.450951 0.250639
vt 0.450951 0.249673
vt 0.367160 0.249013
vt 0.367164 0.249979
vt 0.449992 0.247150
vt 0.368000 0.246504
vt 0.408965 0.152822
vt 0.416538 0.142264
vt 0.501578 0.142185
vt 0.459779 0.053773
vt 0.350446 0.249917
vt 0.263864 0.249051
vt 0.306280 0.150009
vt 0.352885 0.249414
vt 0.353266 0.248517
vt 0.353439 0.248486
vt 0.353302 0.249412
vt 0.263856 0.251755
vt 0.350414 0.252620
vt 0.306025 0.332667
vt 0.401226 0.142696
vt 0.401219 0.143662
vt 0.317007 0.143008
vt 0.317014 0.142042
vt 0.368026 0.252232
vt 0.449993 0.252878
vt 0.409174 0.331032
vt 0.315702 0.139725
vt 0.315190 0.139556
vt 0.357865 0.057548
vt 0.358377 0.057716
vt 0.351419 0.250467
vt 0.351425 0.249431
vt 0.263002 0.248546
vt 0.263001 0.249582
vt 0.502600 0.142969
vt 0.503819 0.142997
vt 0.503810 0.141157
vt 0.501407 0.141159
vt 0.353717 0.248469
vt 0.353340 0.250082
vt 0.352603 0.250074
vt 0.353495 0.248511
vt 0.403221 0.141760
vt 0.404194 0.141430
vt 0.403174 0.139424
vt 0.415551 0.142410
vt 0.414468 0.143811
vt 0.415168 0.145426
vt 0.415482 0.146152
vt 0.403873 0.144913
vt 0.402858 0.144506
vt 0.401756 0.146986
vt 0.401790 0.139744
vt 0.402875 0.141878
vt 0.403865 0.141542
vt 0.262856 0.249197
vt 0.261807 0.247768
vt 0.262505 0.246187
vt 0.262854 0.245395
vt 0.454725 0.248758
vt 0.454078 0.250293
vt 0.452812 0.250283
vt 0.454196 0.248802
vt 0.315001 0.143967
vt 0.314114 0.144319
vt 0.315122 0.146612
vt 0.367048 0.249666
vt 0.365514 0.248178
vt 0.366219 0.246566
vt 0.366505 0.245911
vt 0.307155 0.145113
vt 0.307855 0.144508
vt 0.308829 0.146828
vt 0.359167 0.056395
vt 0.358191 0.056074
vt 0.356621 0.059092
vt 0.360631 0.054717
vt 0.358964 0.054589
vt 0.358196 0.056064
vt 0.358463 0.055552
vt 0.308115 0.337598
vt 0.307428 0.337098
vt 0.308389 0.335218
vt 0.409984 0.335366
vt 0.409252 0.334455
vt 0.410685 0.331711
vt 0.358079 0.243557
vt 0.359015 0.243200
vt 0.357463 0.239668
vt 0.410767 0.336323
vt 0.408741 0.336347
vt 0.408010 0.334947
vt 0.408232 0.335374
vt 0.353501 0.248453
vt 0.353409 0.249384
vt 0.415689 0.143050
vt 0.415692 0.141999
vt 0.403223 0.144652
vt 0.402870 0.142661
vt 0.402863 0.143685
vt 0.454199 0.248767
vt 0.454130 0.249639
vt 0.313635 0.143014
vt 0.313896 0.143724
vt 0.360494 0.055137
vt 0.359318 0.054716
vt 0.358581 0.055325
vt 0.410175 0.335891
vt 0.409019 0.336259
vt 0.358721 0.243312
vt 0.359765 0.244181
vt 0.359342 0.243628
vt 0.361572 0.057609
vt 0.315116 0.138852
vt 0.452874 0.245940
vt 0.411086 0.149863
vt 0.352391 0.245181
vt 0.502594 0.141917
vt 0.309326 0.335834
vt 0.352411 0.254088
vt 0.403168 0.147345
vt 0.361139 0.241956
vt 0.411304 0.333519
vt 0.452881 0.253916
vt 0.356216 0.240152
vn -0.4307 0.4384 0.7889
vn 0.0003 1.0000 0.0005
vn -0.5180 -0.2835 -0.8071
vn 0.5159 -0.0669 -0.8540
vn -0.5164 -0.0599 0.8543
vn 0.0011 0.3418 0.9398
vn 0.9920 0.1252 0.0174
vn 0.0057 0.3409 -0.9401
vn 0.5078 -0.0650 0.8590
vn -0.5058 -0.0603 -0.8605
vn -0.0018 -0.4779 0.8784
vn -0.0023 0.1068 -0.9943
vn -0.9902 0.1380 -0.0194
vn -0.4266 0.4299 -0.7957
vn -0.0041 0.1084 0.9941
vn -0.7046 -0.7096 -0.0099
vn 0.4244 0.4295 0.7971
vn -0.5261 -0.2879 0.8002
vn 0.5148 -0.2943 0.8052
vn -0.0069 -1.0000 0.0040
vn 0.5247 -0.3000 -0.7967
vn 0.7025 -0.7115 0.0122
vn 0.4323 0.4332 -0.7909
vn 0.0008 -0.4800 -0.8773
vn -0.8680 0.4963 -0.0144
vn -0.4257 -0.5550 0.7147
vn 0.4081 -0.5635 0.7183
vn 0.4169 -0.5648 -0.7122
vn -0.4189 -0.5570 -0.7172
vn -0.7995 -0.1514 0.5813
vn -0.7885 -0.1488 -0.5967
vn -0.7168 0.3536 -0.6010
vn -0.7295 0.3593 0.5820
vn 0.7844 -0.1608 0.5990
vn 0.7189 0.3486 0.6013
vn 0.7299 0.3520 -0.5859
vn 0.7982 -0.1635 -0.5798
vn -0.3236 0.7177 -0.6166
vn 0.3295 0.7180 -0.6131
vn 0.3243 0.7178 0.6161
vn -0.3279 0.7206 0.6109
vn -0.2630 -0.1078 0.9587
vn -0.2501 0.2710 0.9295
vn 0.2480 0.2680 0.9309
vn 0.2513 -0.1078 0.9619
vn 0.2571 -0.1101 -0.9601
vn 0.2523 0.2683 -0.9297
vn -0.2467 0.2677 -0.9314
vn -0.2581 -0.1079 -0.9601
vn 0.5589 0.8281 -0.0427
vn 0.0215 0.6645 -0.7470
vn -0.5441 0.8382 0.0370
vn -0.0107 0.6670 0.7449
vn 0.8101 -0.1060 -0.5767
vn 0.9856 0.1692 0.0046
vn 0.7961 -0.1105 0.5950
vn 0.9040 -0.4265 0.0295
vn -0.9828 0.1836 -0.0205
vn -0.7970 -0.0972 -0.5961
vn -0.9078 -0.4192 -0.0108
vn -0.8102 -0.0997 0.5776
vn 0.4008 -0.9160 -0.0160
vn -0.0103 -0.7710 0.6367
vn -0.4026 -0.9152 0.0167
vn 0.0094 -0.7723 -0.6351
vn 0.0127 0.0936 -0.9955
vn 0.2339 -0.0863 -0.9684
vn -0.0069 -0.2632 -0.9647
vn -0.2264 -0.0980 -0.9691
vn 0.0080 0.0947 0.9955
vn -0.2311 -0.0956 0.9682
vn -0.0071 -0.2616 0.9652
vn 0.2299 -0.0859 0.9694
vn -0.5292 -0.1017 0.8423
vn -0.4864 0.2396 0.8402
vn -0.5983 0.6046 -0.5258
vn -0.6038 0.6129 0.5097
vn 0.2109 0.4667 0.8589
vn -0.2138 0.4715 0.8556
vn 0.4777 0.2319 0.8473
vn 0.5184 -0.1077 0.8483
vn 0.5984 0.6040 0.5263
vn 0.6056 0.6085 -0.5129
vn 0.2429 -0.3317 0.9116
vn -0.2543 -0.3287 0.9095
vn 0.7344 -0.4198 0.5333
vn 0.7446 -0.4257 -0.5141
vn -0.7499 -0.4104 0.5188
vn -0.7416 -0.4058 -0.5342
vn 0.2491 -0.3353 -0.9086
vn -0.2490 -0.3268 -0.9117
vn -0.5207 -0.1007 -0.8478
vn -0.4796 0.2347 -0.8455
vn 0.4874 0.2336 -0.8413
vn 0.5291 -0.1105 -0.8413
vn 0.2152 0.4678 -0.8572
vn -0.2111 0.4659 -0.8593
vn 0.8772 0.4800 0.0116
usemtl Material.001
s off
f 70/1/1 64/2/1 32/3/1
f 52/4/2 62/5/2 60/6/2 56/7/2
f 16/8/3 22/9/3 96/10/3
f 67/11/4 69/12/4 29/13/4 17/14/4
f 43/15/5 47/16/5 83/17/5 85/18/5
f 11/19/6 15/20/6 93/21/6 81/22/6
f 36/23/7 46/24/7 44/25/7 40/26/7
f 77/27/8 65/28/8 3/29/8 5/30/8
f 23/31/9 25/32/9 91/33/9 95/34/9
f 75/35/10 79/36/10 35/37/10 37/38/10
f 87/39/11 89/40/11 51/41/11 53/42/11
f 84/43/12 94/44/12 92/45/12 88/46/12
f 20/47/13 30/48/13 28/49/13 24/50/13
f 26/51/14 50/52/14 90/53/14
f 68/54/15 78/55/15 76/56/15 72/57/15
f 39/58/16 41/59/16 55/60/16 57/61/16
f 38/62/17 58/63/17 74/64/17
f 18/65/18 2/66/18 66/67/18
f 6/68/19 34/69/19 80/70/19
f 4/71/20 14/72/20 12/73/20 8/74/20
f 48/75/21 10/76/21 82/77/21
f 27/78/22 31/79/22 61/80/22 49/81/22
f 54/82/23 42/83/23 86/84/23
f 59/85/24 63/86/24 71/87/24 73/88/24
f 7/89/25 9/90/25 45/91/25 33/92/25
f 1/93/26 4/94/26 3/95/26 2/96/26
f 5/30/27 8/74/27 7/89/27 6/68/27
f 9/90/28 12/73/28 11/19/28 10/76/28
f 13/97/29 16/98/29 15/99/29 14/100/29
f 17/14/30 20/101/30 19/102/30 18/103/30
f 21/104/31 24/105/31 23/106/31 22/107/31
f 25/32/32 28/108/32 27/109/32 26/110/32
f 29/13/33 32/111/33 31/112/33 30/113/33
f 33/114/34 36/115/34 35/116/34 34/117/34
f 37/38/35 40/26/35 39/58/35 38/62/35
f 41/59/36 44/25/36 43/15/36 42/83/36
f 45/118/37 48/119/37 47/120/37 46/121/37
f 49/81/38 52/4/38 51/41/38 50/52/38
f 53/42/39 56/122/39 55/123/39 54/124/39
f 57/125/40 60/126/40 59/127/40 58/128/40
f 61/80/41 64/2/41 63/86/41 62/5/41
f 65/28/42 68/129/42 67/130/42 66/131/42
f 69/12/43 72/57/43 71/87/43 70/1/43
f 73/88/44 76/132/44 75/133/44 74/134/44
f 77/135/45 80/136/45 79/137/45 78/138/45
f 81/22/46 84/139/46 83/140/46 82/141/46
f 85/18/47 88/142/47 87/143/47 86/144/47
f 89/40/48 92/145/48 91/146/48 90/147/48
f 93/148/49 96/149/49 95/150/49 94/151/49
f 13/152/50 14/72/50 4/71/50 1/153/50
f 3/29/51 4/71/51 8/74/51 5/30/51
f 7/89/52 8/74/52 12/73/52 9/90/52
f 11/19/53 12/73/53 14/72/53 15/20/53
f 29/13/54 30/113/54 20/101/54 17/14/54
f 19/154/55 20/47/55 24/50/55 21/155/55
f 23/31/56 24/156/56 28/108/56 25/32/56
f 27/78/57 28/157/57 30/158/57 31/79/57
f 45/159/58 46/24/58 36/23/58 33/160/58
f 35/37/59 36/23/59 40/26/59 37/38/59
f 39/58/60 40/26/60 44/25/60 41/59/60
f 43/15/61 44/25/61 46/24/61 47/16/61
f 61/80/62 62/5/62 52/4/62 49/81/62
f 51/41/63 52/4/63 56/7/63 53/42/63
f 55/161/64 56/7/64 60/6/64 57/162/64
f 59/85/65 60/6/65 62/5/65 63/86/65
f 77/163/66 78/55/66 68/54/66 65/164/66
f 67/11/67 68/54/67 72/57/67 69/12/67
f 71/87/68 72/57/68 76/56/68 73/88/68
f 75/165/69 76/56/69 78/55/69 79/137/69
f 93/166/70 94/44/70 84/43/70 81/167/70
f 83/17/71 84/43/71 88/46/71 85/18/71
f 87/39/72 88/168/72 92/145/72 89/40/72
f 91/33/73 92/169/73 94/170/73 95/34/73
f 66/171/74 67/11/74 17/14/74 18/103/74
f 32/3/75 29/13/75 69/12/75 70/1/75
f 26/51/76 27/78/76 49/81/76 50/52/76
f 64/2/77 61/80/77 31/79/77 32/3/77
f 58/172/78 59/85/78 73/88/78 74/134/78
f 70/1/79 71/87/79 63/86/79 64/2/79
f 74/64/80 75/35/80 37/38/80 38/62/80
f 34/173/81 35/37/81 79/36/81 80/174/81
f 38/62/82 39/58/82 57/61/82 58/63/82
f 54/82/83 55/60/83 41/59/83 42/83/83
f 80/70/84 77/27/84 5/30/84 6/68/84
f 2/175/85 3/29/85 65/28/85 66/131/85
f 6/68/86 7/89/86 33/92/86 34/69/86
f 48/75/87 45/91/87 9/90/87 10/76/87
f 18/65/88 19/154/88 1/93/88 2/66/88
f 16/8/89 13/176/89 21/155/89 22/9/89
f 10/76/90 11/19/90 81/22/90 82/77/90
f 96/177/91 93/21/91 15/20/91 16/178/91
f 22/179/92 23/31/92 95/34/92 96/180/92
f 90/53/93 91/33/93 25/32/93 26/51/93
f 42/83/94 43/15/94 85/18/94 86/84/94
f 82/181/95 83/17/95 47/16/95 48/182/95
f 86/183/96 87/39/96 53/42/96 54/124/96
f 50/52/97 51/41/97 89/40/97 90/53/97
f 19/154/98 21/155/98 13/176/98 1/93/98
