# Blender 3.4.1
# www.blender.org
mtllib untitled.mtl
o Cube_Cube.001
v 0.392314 1.545003 -0.344311
v 0.369552 1.469966 -0.344311
v 0.332588 1.400811 -0.344311
v 0.282843 1.340196 -0.344311
v 0.222228 1.290451 -0.344311
v 0.153073 1.253487 -0.344311
v 0.078036 1.230725 -0.344311
v 0.000000 1.223039 -0.344311
v -0.078036 1.230725 -0.344311
v -0.153074 1.253487 -0.344311
v -0.222228 1.290451 -0.344311
v -0.282843 1.340197 -0.344311
v -0.332588 1.400811 -0.344311
v -0.369552 1.469966 -0.344311
v -0.392314 1.545003 -0.344311
v 1.143807 -1.585575 -0.362359
v 1.143807 -1.609721 -0.356923
v 1.161225 -1.585575 -0.356923
v 1.143807 -1.597632 -0.361632
v 1.152504 -1.585575 -0.361632
v 1.152136 -1.597122 -0.360927
v 1.152504 -1.606495 -0.356923
v 1.143807 -1.606495 -0.359637
v 1.152136 -1.603362 -0.359522
v 1.158898 -1.585575 -0.359637
v 1.158898 -1.597632 -0.356923
v 1.156638 -1.597122 -0.359522
v 1.143807 -1.609721 0.356923
v 1.143807 -1.585575 0.362359
v 1.161225 -1.585575 0.356923
v 1.143807 -1.606495 0.359637
v 1.152504 -1.606495 0.356923
v 1.152136 -1.603362 0.359522
v 1.152504 -1.585575 0.361632
v 1.143807 -1.597632 0.361632
v 1.152136 -1.597122 0.360927
v 1.158898 -1.597632 0.356923
v 1.158898 -1.585575 0.359637
v 1.156638 -1.597122 0.359522
v 1.143807 1.585575 -0.362359
v 1.161225 1.585575 -0.356923
v 1.143807 1.609721 -0.356923
v 1.152504 1.585575 -0.361632
v 1.143807 1.597632 -0.361632
v 1.152136 1.597122 -0.360927
v 1.158898 1.597632 -0.356923
v 1.158898 1.585575 -0.359637
v 1.156638 1.597122 -0.359522
v 1.143807 1.606495 -0.359637
v 1.152504 1.606495 -0.356923
v 1.152136 1.603362 -0.359522
v 1.143807 1.585575 0.362359
v 1.143807 1.609721 0.356923
v 1.161225 1.585575 0.356923
v 1.143807 1.597632 0.361632
v 1.152504 1.585575 0.361632
v 1.152136 1.597122 0.360927
v 1.152504 1.606495 0.356923
v 1.143807 1.606495 0.359637
v 1.152136 1.603362 0.359522
v 1.158898 1.585575 0.359637
v 1.158898 1.597632 0.356923
v 1.156638 1.597122 0.359522
v -1.143807 -1.585575 -0.362359
v -1.161225 -1.585575 -0.356923
v -1.143807 -1.609721 -0.356923
v -1.152504 -1.585575 -0.361632
v -1.143807 -1.597632 -0.361632
v -1.152136 -1.597122 -0.360927
v -1.158898 -1.597632 -0.356923
v -1.158898 -1.585575 -0.359637
v -1.156638 -1.597122 -0.359522
v -1.143807 -1.606495 -0.359637
v -1.152504 -1.606495 -0.356923
v -1.152136 -1.603362 -0.359522
v -1.143807 -1.585575 0.362359
v -1.143807 -1.609721 0.356923
v -1.161225 -1.585575 0.356923
v -1.143807 -1.597632 0.361632
v -1.152504 -1.585575 0.361632
v -1.152136 -1.597122 0.360927
v -1.152504 -1.606495 0.356923
v -1.143807 -1.606495 0.359637
v -1.152136 -1.603362 0.359522
v -1.158898 -1.585575 0.359637
v -1.158898 -1.597632 0.356923
v -1.156638 -1.597122 0.359522
v -1.143807 1.585575 -0.362359
v -1.143807 1.609721 -0.356923
v -1.161225 1.585575 -0.356923
v -1.143807 1.597632 -0.361632
v -1.152504 1.585575 -0.361632
v -1.152136 1.597122 -0.360927
v -1.152504 1.606495 -0.356923
v -1.143807 1.606495 -0.359637
v -1.152136 1.603362 -0.359522
v -1.158898 1.585575 -0.359637
v -1.158898 1.597632 -0.356923
v -1.156638 1.597122 -0.359522
v -1.143807 1.585575 0.362359
v -1.161225 1.585575 0.356923
v -1.143807 1.609721 0.356923
v -1.152504 1.585575 0.361632
v -1.143807 1.597632 0.361632
v -1.152136 1.597122 0.360927
v -1.158898 1.597632 0.356923
v -1.158898 1.585575 0.359637
v -1.156638 1.597122 0.359522
v -1.143807 1.606495 0.359637
v -1.152504 1.606495 0.356923
v -1.152136 1.603362 0.359522
v -0.369552 1.469966 -0.362358
v -0.282843 1.340197 -0.362358
v -0.392314 1.545003 -0.362358
v -0.013318 1.609721 -0.344311
v -0.019932 1.609721 -0.344311
v -0.066954 1.609721 -0.344311
v -0.398688 1.609721 -0.344311
v -0.032153 1.609721 -0.344311
v -0.332588 1.400811 -0.362358
v -0.398688 1.609721 -0.356923
v -0.397498 1.597632 -0.361632
v -0.398371 1.606495 -0.359637
v -0.396310 1.585575 -0.362359
v 0.222228 1.290451 -0.362358
v 0.153073 1.253487 -0.362358
v 0.005516 1.609721 -0.344311
v 0.002649 1.609721 -0.344311
v 0.008899 1.609721 -0.344311
v 0.019932 1.609721 -0.344311
v 0.013318 1.609721 -0.344311
v 0.332588 1.400811 -0.362358
v 0.282843 1.340196 -0.362358
v 0.369552 1.469966 -0.362358
v -0.222228 1.290451 -0.362358
v -0.008899 1.609721 -0.344311
v -0.002649 1.609721 -0.344311
v -0.005517 1.609721 -0.344311
v -0.153074 1.253487 -0.362358
v 0.392314 1.545003 -0.362358
v 0.000000 1.609721 -0.344311
v 0.078036 1.230725 -0.362358
v 0.066954 1.609721 -0.344311
v 0.032153 1.609721 -0.344311
v 0.000000 1.223039 -0.362358
v 0.398688 1.609721 -0.344311
v -0.078036 1.230725 -0.362358
v 0.398688 1.609721 -0.356923
v 0.397498 1.597632 -0.361632
v 0.398371 1.606495 -0.359637
v 0.396310 1.585575 -0.362359
vn -0.0000 -1.0000 -0.0000
vn -1.0000 -0.0000 -0.0000
vn -0.0000 -0.0000 1.0000
vn 1.0000 -0.0000 -0.0000
vn -0.0000 1.0000 -0.0000
vn 0.0831 -0.0634 -0.9945
vn 0.0956 -0.2187 -0.9711
vn 0.2323 -0.6262 -0.7443
vn 0.6271 -0.4524 -0.6341
vn 0.7511 -0.1450 -0.6440
vn 0.2972 -0.0677 -0.9524
vn 0.2913 -0.2101 -0.9333
vn 0.2323 -0.6262 0.7443
vn 0.0956 -0.2186 0.9711
vn 0.0878 -0.0600 0.9943
vn 0.2972 -0.0676 0.9524
vn 0.7511 -0.1450 0.6440
vn 0.6271 -0.4524 0.6341
vn 0.2913 -0.2101 0.9333
vn 0.0878 0.0600 -0.9943
vn 0.2972 0.0676 -0.9524
vn 0.7511 0.1450 -0.6440
vn 0.6271 0.4524 -0.6341
vn 0.2323 0.6262 -0.7443
vn 0.0956 0.2186 -0.9711
vn 0.2913 0.2101 -0.9333
vn 0.0831 0.0634 0.9945
vn 0.0956 0.2187 0.9711
vn 0.2323 0.6262 0.7443
vn 0.6271 0.4524 0.6341
vn 0.7511 0.1450 0.6440
vn 0.2972 0.0677 0.9524
vn 0.2913 0.2101 0.9333
vn -0.0878 -0.0600 -0.9943
vn -0.2972 -0.0676 -0.9524
vn -0.7511 -0.1450 -0.6440
vn -0.6271 -0.4524 -0.6341
vn -0.2323 -0.6262 -0.7443
vn -0.0956 -0.2186 -0.9711
vn -0.2913 -0.2101 -0.9333
vn -0.0831 -0.0634 0.9945
vn -0.0956 -0.2187 0.9711
vn -0.2323 -0.6262 0.7443
vn -0.6271 -0.4524 0.6341
vn -0.7511 -0.1450 0.6440
vn -0.2972 -0.0677 0.9524
vn -0.2913 -0.2101 0.9333
vn -0.0831 0.0634 -0.9945
vn -0.0956 0.2187 -0.9711
vn -0.2323 0.6262 -0.7443
vn -0.6271 0.4524 -0.6341
vn -0.7511 0.1450 -0.6440
vn -0.2972 0.0677 -0.9524
vn -0.2913 0.2101 -0.9333
vn -0.0878 0.0600 0.9943
vn -0.2972 0.0676 0.9524
vn -0.7511 0.1450 0.6440
vn -0.6271 0.4524 0.6341
vn -0.2323 0.6262 0.7443
vn -0.0956 0.2186 0.9711
vn -0.2913 0.2101 0.9333
vn 0.0833 -0.0000 -0.9965
vn 0.2979 -0.0000 -0.9546
vn 0.7592 -0.0000 -0.6509
vn 0.3478 -0.9376 -0.0000
vn 0.8110 -0.5851 -0.0000
vn 0.9819 -0.1895 -0.0000
vn 0.0833 -0.0000 0.9965
vn 0.2979 -0.0000 0.9546
vn 0.7592 -0.0000 0.6509
vn 0.3478 0.9376 -0.0000
vn 0.8110 0.5851 -0.0000
vn 0.9819 0.1895 -0.0000
vn -0.0000 0.0602 -0.9982
vn -0.0000 0.2196 -0.9756
vn -0.0000 0.6438 -0.7652
vn -0.0000 0.0602 0.9982
vn -0.0000 0.2196 0.9756
vn -0.0000 0.6438 0.7652
vn -0.9819 0.1895 -0.0000
vn -0.8110 0.5851 -0.0000
vn -0.3478 0.9376 -0.0000
vn -0.0833 -0.0000 -0.9965
vn -0.2979 -0.0000 -0.9546
vn -0.7592 -0.0000 -0.6509
vn -0.0833 -0.0000 0.9965
vn -0.2979 -0.0000 0.9546
vn -0.7592 -0.0000 0.6509
vn -0.3478 -0.9376 -0.0000
vn -0.8110 -0.5851 -0.0000
vn -0.9819 -0.1895 -0.0000
vn -0.0000 -0.0602 -0.9982
vn -0.0000 -0.2196 -0.9756
vn -0.0000 -0.6438 -0.7652
vn -0.0000 -0.0602 0.9982
vn -0.0000 -0.2196 0.9756
vn -0.0000 -0.6438 0.7652
vn -0.0000 -0.0000 -1.0000
vn -0.0980 0.9952 -0.0000
vn -0.8819 0.4714 -0.0000
vn -0.9952 0.0980 -0.0000
vn 0.8819 0.4714 -0.0000
vn 0.2903 0.9569 -0.0000
vn 0.7730 0.6344 -0.0000
vn 0.6344 0.7730 -0.0000
vn 0.4714 0.8819 -0.0000
vn 0.9569 0.2903 -0.0000
vn -0.7730 0.6344 -0.0000
vn -0.6344 0.7730 -0.0000
vn -0.4714 0.8819 -0.0000
vn -0.2903 0.9569 -0.0000
vn -0.9569 0.2903 -0.0000
vn 0.9952 0.0980 -0.0000
vn 0.0980 0.9952 -0.0000
vn -0.9952 0.0980 0.0001
vn -0.9952 0.0981 -0.0004
vn 0.9952 0.0981 -0.0004
vn 0.9952 0.0981 -0.0003
vn 0.0878 -0.0600 -0.9943
vn 0.0956 -0.2186 -0.9711
vn 0.2375 -0.6035 -0.7612
vn 0.7314 -0.1498 -0.6653
vn 0.2972 -0.0676 -0.9524
vn 0.2375 -0.6035 0.7612
vn 0.0956 -0.2187 0.9711
vn 0.0831 -0.0634 0.9945
vn 0.2972 -0.0677 0.9524
vn 0.7314 -0.1498 0.6653
vn 0.0831 0.0634 -0.9945
vn 0.2972 0.0677 -0.9524
vn 0.7314 0.1498 -0.6653
vn 0.2375 0.6035 -0.7612
vn 0.0956 0.2187 -0.9711
vn 0.0878 0.0600 0.9943
vn 0.0956 0.2186 0.9711
vn 0.2375 0.6035 0.7612
vn 0.7314 0.1498 0.6653
vn 0.2972 0.0676 0.9524
vn -0.0831 -0.0634 -0.9945
vn -0.2972 -0.0677 -0.9524
vn -0.7314 -0.1498 -0.6653
vn -0.2375 -0.6035 -0.7612
vn -0.0956 -0.2187 -0.9711
vn -0.0878 -0.0600 0.9943
vn -0.0956 -0.2186 0.9711
vn -0.2375 -0.6035 0.7612
vn -0.7314 -0.1498 0.6653
vn -0.2972 -0.0676 0.9524
vn -0.0878 0.0600 -0.9943
vn -0.0956 0.2186 -0.9711
vn -0.2375 0.6035 -0.7612
vn -0.7314 0.1498 -0.6653
vn -0.2972 0.0676 -0.9524
vn -0.0831 0.0634 0.9945
vn -0.2972 0.0677 0.9524
vn -0.7314 0.1498 0.6653
vn -0.2375 0.6035 0.7612
vn -0.0956 0.2187 0.9711
vn 0.2978 -0.0000 -0.9546
vn 0.7591 -0.0000 -0.6509
vn 0.2978 -0.0000 0.9546
vn 0.7591 -0.0000 0.6509
vn -0.2978 -0.0000 -0.9546
vn -0.7591 -0.0000 -0.6509
vn -0.2978 -0.0000 0.9546
vn -0.7591 -0.0000 0.6509
vt 0.904716 0.013314
vt 0.900420 0.024788
vt 0.894187 0.035453
vt 0.886057 0.044842
vt 0.876264 0.052620
vt 0.865142 0.058509
vt 0.853076 0.062301
vt 0.840481 0.063873
vt 0.827793 0.063227
vt 0.815457 0.060322
vt 0.803885 0.055246
vt 0.793480 0.048166
vt 0.784599 0.039313
vt 0.777515 0.028961
vt 0.772348 0.017457
vt 0.123344 0.997271
vt 0.002232 0.121609
vt 0.123559 0.000719
vt 0.000141 0.121220
vt 0.121354 0.997275
vt 0.123343 0.998709
vt 0.000579 0.119578
vt 0.121433 0.998658
vt 0.002154 0.120211
vt 0.001618 0.121481
vt 0.001576 0.120064
vt 0.123336 0.999817
vt 0.123524 0.000102
vt 0.121531 0.000708
vt 0.001957 0.118454
vt 0.001220 0.118768
vt 0.121540 0.000121
vt 0.121422 0.999441
vt 0.119376 0.121620
vt 0.123461 0.121228
vt 0.123560 0.118081
vt 0.119992 0.121491
vt 0.119455 0.120221
vt 0.120033 0.120072
vt 0.123458 0.119788
vt 0.121470 0.121228
vt 0.121467 0.119566
vt 0.121030 0.119585
vt 0.121548 0.119847
vt 0.119651 0.118462
vt 0.121534 0.118130
vt 0.123533 0.118679
vt 0.120388 0.118776
vt 0.121567 0.118756
vt 0.644896 0.997352
vt 0.644916 0.000718
vt 0.766152 0.121622
vt 0.644899 0.998790
vt 0.646882 0.997354
vt 0.646807 0.998730
vt 0.766186 0.118332
vt 0.646944 0.000707
vt 0.644951 0.000100
vt 0.644909 0.999900
vt 0.766784 0.118503
vt 0.646831 0.999512
vt 0.646935 0.000120
vt 0.648380 0.997362
vt 0.766847 0.121509
vt 0.766142 0.120126
vt 0.766764 0.119875
vt 0.647867 0.998747
vt 0.644976 0.121294
vt 0.648935 0.121727
vt 0.644916 0.118079
vt 0.646971 0.121392
vt 0.645018 0.119787
vt 0.647143 0.119886
vt 0.647009 0.119565
vt 0.648799 0.120359
vt 0.648358 0.121605
vt 0.648215 0.120251
vt 0.644943 0.118677
vt 0.646942 0.118129
vt 0.648548 0.118614
vt 0.647767 0.118976
vt 0.646909 0.118755
vt 0.123397 0.621032
vt 0.123493 0.617947
vt 0.002191 0.497025
vt 0.123428 0.619605
vt 0.121385 0.620997
vt 0.000100 0.497414
vt 0.121487 0.619554
vt 0.000538 0.499056
vt 0.001915 0.500180
vt 0.121468 0.618034
vt 0.123474 0.618526
vt 0.001179 0.499866
vt 0.121524 0.618698
vt 0.001577 0.497153
vt 0.002112 0.498423
vt 0.001534 0.498570
vt 0.123414 0.497435
vt 0.119335 0.497039
vt 0.123513 0.500581
vt 0.121426 0.497433
vt 0.123411 0.498874
vt 0.120986 0.499074
vt 0.121502 0.498813
vt 0.121419 0.499095
vt 0.119412 0.498438
vt 0.119950 0.497169
vt 0.119990 0.498587
vt 0.123486 0.499983
vt 0.121485 0.500531
vt 0.119608 0.500196
vt 0.120345 0.499882
vt 0.121519 0.499905
vt 0.644948 0.621105
vt 0.766363 0.497454
vt 0.767284 0.179104
vt 0.644869 0.618038
vt 0.646947 0.621064
vt 0.644923 0.619687
vt 0.646842 0.619648
vt 0.767256 0.067693
vt 0.769049 0.179112
vt 0.648467 0.621048
vt 0.767501 0.178332
vt 0.767056 0.497454
vt 0.647945 0.619620
vt 0.769194 0.178348
vt 0.767666 0.067104
vt 0.644885 0.618613
vt 0.646896 0.618134
vt 0.769174 0.067697
vt 0.769015 0.067107
vt 0.646836 0.618808
vt 0.644927 0.497503
vt 0.644891 0.500672
vt 0.649104 0.497503
vt 0.767256 0.280177
vt 0.644927 0.498944
vt 0.646921 0.497514
vt 0.768030 0.281151
vt 0.646836 0.498894
vt 0.769176 0.177542
vt 0.646920 0.500661
vt 0.644926 0.500054
vt 0.769015 0.178131
vt 0.767256 0.281202
vt 0.646844 0.499703
vt 0.646911 0.500074
vt 0.767466 0.280950
vt 0.648420 0.497544
vt 0.769020 0.280185
vt 0.767259 0.177538
vt 0.768030 0.282202
vt 0.767666 0.178129
vt 0.769159 0.280950
vt 0.647892 0.498915
vt 0.625919 0.748443
vt 0.774906 0.030446
vt 0.604572 0.762700
vt 0.791579 0.050493
vt 0.638261 0.744701
vt 0.769521 0.018511
vt 0.764214 0.311763
vt 0.833544 0.000428
vt 0.764215 0.312839
vt 0.831990 0.000564
vt 0.764218 0.320568
vt 0.824144 0.001342
vt 0.764241 0.375060
vt 0.769367 0.007010
vt 0.764216 0.314850
vt 0.829948 0.000760
vt 0.614543 0.754520
vt 0.782303 0.041244
vt 0.767256 0.007613
vt 0.649037 0.744074
vt 0.766312 0.375059
vt 0.646916 0.743812
vt 0.648412 0.743721
vt 0.767005 0.375006
vt 0.767523 0.011852
vt 0.644935 0.744045
vt 0.596380 0.845773
vt 0.877921 0.055121
vt 0.590302 0.834397
vt 0.866321 0.061285
vt 0.764226 0.308611
vt 0.840740 0.000100
vt 0.764222 0.309071
vt 0.839575 0.000115
vt 0.764231 0.308032
vt 0.841967 0.000100
vt 0.764235 0.306196
vt 0.844862 0.000153
vt 0.764235 0.307284
vt 0.843311 0.000117
vt 0.614529 0.863928
vt 0.896607 0.037160
vt 0.604561 0.855745
vt 0.888134 0.046982
vt 0.625902 0.870009
vt 0.903076 0.026027
vt 0.596389 0.772668
vt 0.802440 0.057892
vt 0.764214 0.311031
vt 0.834891 0.000325
vt 0.764213 0.309996
vt 0.837284 0.000188
vt 0.764214 0.310454
vt 0.836119 0.000247
vt 0.590308 0.784041
vt 0.814515 0.063196
vt 0.638243 0.873755
vt 0.907464 0.014127
vt 0.838430 0.000145
vt 0.764218 0.309533
vt 0.586559 0.822053
vt 0.853737 0.065256
vt 0.764232 0.298465
vt 0.852696 0.000441
vt 0.764235 0.304182
vt 0.846897 0.000220
vt 0.585297 0.809217
vt 0.840608 0.066904
vt 0.764189 0.243985
vt 0.906926 0.003018
vt 0.586563 0.796382
vt 0.827384 0.066228
vt 0.909000 0.003473
vt 0.649016 0.874387
vt 0.766261 0.243984
vt 0.646896 0.874647
vt 0.766954 0.244035
vt 0.648391 0.874739
vt 0.909004 0.007613
vt 0.644916 0.874413
s 0
usemtl Material.001
f 77/100/1 66/85/1 17/17/1
f 101/136/2 90/118/2 65/84/2
f 52/68/3 100/135/3 76/99/3
f 30/36/4 18/18/4 41/51/4
f 53/69/5 141/217/5 137/208/5
f 16/16/6 20/21/6 21/23/6
f 19/19/7 21/22/7 24/26/7
f 22/24/8 17/17/8 23/25/8
f 26/30/9 22/24/9 24/26/9
f 25/28/10 18/18/10 26/29/10
f 20/21/11 25/27/11 27/33/11
f 21/22/12 27/31/12 24/26/12
f 31/37/13 28/34/13 32/38/13
f 35/41/14 31/37/14 33/39/14
f 29/35/15 35/41/15 36/44/15
f 34/40/16 36/42/16 39/49/16
f 37/46/17 30/36/17 38/47/17
f 37/45/18 39/48/18 33/39/18
f 33/39/19 39/48/19 36/43/19
f 40/50/20 44/54/20 45/55/20
f 43/53/21 45/55/21 48/61/21
f 46/57/22 41/51/22 47/58/22
f 46/56/23 48/60/23 51/66/23
f 49/64/24 42/52/24 50/65/24
f 44/54/25 49/63/25 51/67/25
f 45/55/26 51/67/26 48/61/26
f 52/68/27 56/72/27 57/73/27
f 55/71/28 57/73/28 60/77/28
f 58/75/29 53/69/29 59/76/29
f 62/80/30 58/75/30 60/77/30
f 61/78/31 54/70/31 62/79/31
f 56/72/32 61/78/32 63/82/32
f 57/73/33 63/81/33 60/77/33
f 64/83/34 68/87/34 69/89/34
f 67/86/35 69/89/35 72/95/35
f 70/92/36 65/84/36 71/93/36
f 70/91/37 72/94/37 75/98/37
f 73/96/38 66/85/38 74/97/38
f 68/88/39 73/96/39 75/98/39
f 69/90/40 75/98/40 72/94/40
f 76/99/41 80/103/41 81/105/41
f 79/102/42 81/104/42 84/109/42
f 82/107/43 77/100/43 83/108/43
f 86/112/44 82/107/44 84/109/44
f 85/110/45 78/101/45 86/111/45
f 80/103/46 85/110/46 87/114/46
f 81/104/47 87/113/47 84/109/47
f 88/115/48 92/120/48 93/121/48
f 91/119/49 93/121/49 96/127/49
f 94/123/50 89/117/50 95/125/50
f 98/132/51 94/122/51 96/129/51
f 97/130/52 90/118/52 98/131/52
f 92/120/53 97/130/53 99/134/53
f 93/121/54 99/134/54 96/127/54
f 100/135/55 104/140/55 105/142/55
f 103/139/56 105/142/56 108/148/56
f 106/144/57 101/136/57 107/145/57
f 106/143/58 108/146/58 111/155/58
f 109/150/59 102/138/59 110/152/59
f 104/140/60 109/151/60 111/157/60
f 105/141/61 111/154/61 108/147/61
f 16/16/62 40/50/62 43/53/62
f 20/21/63 43/53/63 47/59/63
f 25/28/64 47/58/64 41/51/64
f 28/34/65 17/17/65 22/24/65
f 32/38/66 22/24/66 26/30/66
f 37/46/67 26/29/67 18/18/67
f 52/68/68 29/35/68 34/40/68
f 56/72/69 34/40/69 38/47/69
f 61/78/70 38/47/70 30/36/70
f 42/52/71 53/69/71 58/75/71
f 50/65/72 58/75/72 62/80/72
f 46/57/73 62/79/73 54/70/73
f 88/115/74 91/119/74 122/179/74
f 91/119/75 95/124/75 123/180/75
f 95/126/76 89/116/76 121/178/76
f 100/135/77 52/68/77 55/71/77
f 104/140/78 55/71/78 59/76/78
f 109/151/79 59/76/79 53/69/79
f 90/118/80 101/136/80 106/144/80
f 98/132/81 106/143/81 110/153/81
f 94/123/82 110/152/82 102/138/82
f 88/115/83 64/83/83 67/86/83
f 92/120/84 67/86/84 71/93/84
f 97/130/85 71/93/85 65/84/85
f 76/99/86 100/135/86 103/139/86
f 80/103/87 103/139/87 107/145/87
f 85/110/88 107/145/88 101/136/88
f 66/85/89 77/100/89 82/107/89
f 74/97/90 82/107/90 86/112/90
f 70/92/91 86/111/91 78/101/91
f 64/83/92 16/16/92 19/20/92
f 68/88/93 19/19/93 23/25/93
f 73/96/94 23/25/94 17/17/94
f 29/35/95 76/99/95 79/102/95
f 35/41/96 79/102/96 83/108/96
f 31/37/97 83/108/97 77/100/97
f 16/16/98 145/224/98 142/218/98
f 7/7/99 142/219/99 145/225/99
f 4/4/98 131/197/98 130/195/98
f 148/232/76 42/52/76 49/64/76
f 2/2/100 134/203/100 132/199/100
f 148/230/101 151/236/101 1/1/101
f 13/13/102 120/175/102 112/159/102
f 9/9/103 147/229/103 139/213/103
f 3/3/98 130/195/98 144/223/98
f 119/173/98 116/167/98 13/13/98
f 136/207/98 138/211/98 10/10/98
f 12/12/104 113/161/104 120/175/104
f 11/11/105 135/205/105 113/161/105
f 116/167/98 115/165/98 12/12/98
f 2/2/98 144/223/98 143/221/98
f 10/10/106 139/213/106 135/205/106
f 115/165/98 136/207/98 11/11/98
f 143/221/98 146/227/98 1/1/98
f 149/233/74 44/54/74 40/50/74
f 14/14/107 112/159/107 114/163/107
f 3/3/108 132/199/108 133/201/108
f 4/4/109 133/201/109 125/185/109
f 137/209/98 141/216/98 8/8/98
f 118/171/98 117/169/98 15/15/98
f 5/5/110 125/185/110 126/187/110
f 6/6/111 126/187/111 142/219/111
f 5/5/98 129/193/98 131/197/98
f 1/1/112 140/215/112 134/203/112
f 8/8/98 141/216/98 128/191/98
f 6/6/98 127/189/98 129/193/98
f 138/211/98 137/209/98 9/9/98
f 124/182/113 121/176/113 15/15/113
f 8/8/114 145/225/114 147/229/114
f 7/7/98 128/191/98 127/189/98
f 150/235/75 49/63/75 44/54/75
f 117/169/98 119/173/98 14/14/98
f 148/232/5 146/226/5 42/52/5
f 42/52/5 146/226/5 53/69/5
f 53/69/5 137/208/5 102/137/5
f 102/137/5 118/170/5 89/116/5
f 89/116/5 118/170/5 121/178/5
f 117/168/5 102/137/5 119/172/5
f 119/172/5 102/137/5 116/166/5
f 102/137/5 115/164/5 116/166/5
f 102/137/5 117/168/5 118/170/5
f 102/137/5 136/206/5 115/164/5
f 130/194/5 53/69/5 144/222/5
f 144/222/5 53/69/5 143/220/5
f 143/220/5 53/69/5 146/226/5
f 136/206/5 102/137/5 138/210/5
f 138/210/5 102/137/5 137/208/5
f 127/188/5 53/69/5 129/192/5
f 129/192/5 53/69/5 131/196/5
f 131/196/5 53/69/5 130/194/5
f 141/217/5 53/69/5 128/190/5
f 128/190/5 53/69/5 127/188/5
f 16/16/98 133/200/98 40/50/98
f 40/50/98 140/214/98 151/237/98
f 40/50/98 134/202/98 140/214/98
f 88/115/98 113/160/98 64/83/98
f 64/83/98 145/224/98 16/16/98
f 88/115/98 112/158/98 120/174/98
f 114/162/98 88/115/98 124/183/98
f 112/158/98 88/115/98 114/162/98
f 40/50/98 132/198/98 134/202/98
f 40/50/98 133/200/98 132/198/98
f 120/174/98 113/160/98 88/115/98
f 113/160/98 135/204/98 64/83/98
f 16/16/98 125/184/98 133/200/98
f 135/204/98 139/212/98 64/83/98
f 139/212/98 147/228/98 64/83/98
f 16/16/98 126/186/98 125/184/98
f 16/16/98 142/218/98 126/186/98
f 147/228/98 145/224/98 64/83/98
f 7/7/99 145/225/99 8/8/99
f 2/2/100 132/199/100 3/3/100
f 148/230/101 1/1/101 146/227/101
f 1/1/101 151/236/101 140/215/101
f 151/237/115 148/231/115 149/233/115
f 149/233/116 148/231/116 150/235/116
f 13/13/102 112/159/102 14/14/102
f 9/9/103 139/213/103 10/10/103
f 12/12/104 120/175/104 13/13/104
f 11/11/105 113/161/105 12/12/105
f 10/10/106 135/205/106 11/11/106
f 14/14/107 114/163/107 15/15/107
f 3/3/108 133/201/108 4/4/108
f 4/4/109 125/185/109 5/5/109
f 5/5/110 126/187/110 6/6/110
f 6/6/111 142/219/111 7/7/111
f 1/1/112 134/203/112 2/2/112
f 124/182/113 15/15/113 114/163/113
f 15/15/113 121/176/113 118/171/113
f 121/177/117 122/179/117 123/180/117
f 122/179/118 121/177/118 124/183/118
f 8/8/114 147/229/114 9/9/114
f 77/100/1 17/17/1 28/34/1
f 101/136/2 65/84/2 78/101/2
f 52/68/3 76/99/3 29/35/3
f 30/36/4 41/51/4 54/70/4
f 16/16/119 21/23/119 19/20/119
f 19/19/120 24/26/120 23/25/120
f 22/24/121 23/25/121 24/26/121
f 26/30/9 24/26/9 27/31/9
f 25/28/122 26/29/122 27/32/122
f 20/21/123 27/33/123 21/23/123
f 31/37/124 32/38/124 33/39/124
f 35/41/125 33/39/125 36/43/125
f 29/35/126 36/44/126 34/40/126
f 34/40/127 39/49/127 38/47/127
f 37/46/128 38/47/128 39/49/128
f 37/45/18 33/39/18 32/38/18
f 40/50/129 45/55/129 43/53/129
f 43/53/130 48/61/130 47/59/130
f 46/57/131 47/58/131 48/62/131
f 46/56/23 51/66/23 50/65/23
f 49/64/132 50/65/132 51/66/132
f 44/54/133 51/67/133 45/55/133
f 52/68/134 57/73/134 55/71/134
f 55/71/135 60/77/135 59/76/135
f 58/75/136 59/76/136 60/77/136
f 62/80/30 60/77/30 63/81/30
f 61/78/137 62/79/137 63/82/137
f 56/72/138 63/82/138 57/74/138
f 64/83/139 69/89/139 67/86/139
f 67/86/140 72/95/140 71/93/140
f 70/92/141 71/93/141 72/95/141
f 70/91/37 75/98/37 74/97/37
f 73/96/142 74/97/142 75/98/142
f 68/88/143 75/98/143 69/90/143
f 76/99/144 81/105/144 79/102/144
f 79/102/145 84/109/145 83/108/145
f 82/107/146 83/108/146 84/109/146
f 86/112/44 84/109/44 87/113/44
f 85/110/147 86/111/147 87/114/147
f 80/103/148 87/114/148 81/106/148
f 88/115/149 93/121/149 91/119/149
f 91/119/150 96/127/150 95/124/150
f 94/123/151 95/125/151 96/128/151
f 98/132/51 96/129/51 99/133/51
f 97/130/152 98/131/152 99/134/152
f 92/120/153 99/134/153 93/121/153
f 100/135/154 105/142/154 103/139/154
f 103/139/155 108/148/155 107/145/155
f 106/144/156 107/145/156 108/149/156
f 106/143/58 111/155/58 110/153/58
f 109/150/157 110/152/157 111/156/157
f 104/140/158 111/157/158 105/142/158
f 16/16/62 43/53/62 20/21/62
f 20/21/159 47/59/159 25/27/159
f 25/28/160 41/51/160 18/18/160
f 28/34/65 22/24/65 32/38/65
f 32/38/66 26/30/66 37/45/66
f 37/46/67 18/18/67 30/36/67
f 52/68/68 34/40/68 56/72/68
f 56/72/161 38/47/161 61/78/161
f 61/78/162 30/36/162 54/70/162
f 42/52/71 58/75/71 50/65/71
f 50/65/72 62/80/72 46/56/72
f 46/57/73 54/70/73 41/51/73
f 88/115/74 122/179/74 124/183/74
f 91/119/75 123/180/75 122/179/75
f 95/126/76 121/178/76 123/181/76
f 100/135/77 55/71/77 104/140/77
f 104/140/78 59/76/78 109/151/78
f 109/151/79 53/69/79 102/137/79
f 90/118/80 106/144/80 98/131/80
f 98/132/81 110/153/81 94/122/81
f 94/123/82 102/138/82 89/117/82
f 88/115/83 67/86/83 92/120/83
f 92/120/163 71/93/163 97/130/163
f 97/130/164 65/84/164 90/118/164
f 76/99/86 103/139/86 80/103/86
f 80/103/165 107/145/165 85/110/165
f 85/110/166 101/136/166 78/101/166
f 66/85/89 82/107/89 74/97/89
f 74/97/90 86/112/90 70/91/90
f 70/92/91 78/101/91 65/84/91
f 64/83/92 19/20/92 68/87/92
f 68/88/93 23/25/93 73/96/93
f 73/96/94 17/17/94 66/85/94
f 29/35/95 79/102/95 35/41/95
f 35/41/96 83/108/96 31/37/96
f 31/37/97 77/100/97 28/34/97
f 4/4/98 130/195/98 3/3/98
f 148/232/76 49/64/76 150/234/76
f 3/3/98 144/223/98 2/2/98
f 119/173/98 13/13/98 14/14/98
f 136/207/98 10/10/98 11/11/98
f 116/167/98 12/12/98 13/13/98
f 2/2/98 143/221/98 1/1/98
f 115/165/98 11/11/98 12/12/98
f 149/233/74 40/50/74 151/237/74
f 137/209/98 8/8/98 9/9/98
f 5/5/98 131/197/98 4/4/98
f 8/8/98 128/191/98 7/7/98
f 6/6/98 129/193/98 5/5/98
f 138/211/98 9/9/98 10/10/98
f 7/7/98 127/189/98 6/6/98
f 150/235/75 44/54/75 149/233/75
f 117/169/98 14/14/98 15/15/98
